<svg width="244" height="48" viewBox="0 0 244 48" fill="none" xmlns="http://www.w3.org/2000/svg">
<g id="logo">
<g id="dappy">
<path fill-rule="evenodd" clip-rule="evenodd" d="M82.1432 25.6629C82.6194 23.937 82.8575 22.1161 82.8575 20.1996C82.8575 18.3018 82.6149 16.485 82.1301 14.7498C81.6447 13.0145 80.9659 11.3971 80.093 9.89651C79.2202 8.39646 78.1659 7.04075 76.9319 5.82939C75.6973 4.61855 74.3351 3.57905 72.8446 2.71142C71.3542 1.84378 69.7498 1.17554 68.03 0.705114C66.3106 0.235211 64.5248 0 62.6732 0H49.6314C49.2256 0 48.9216 0.117865 48.719 0.352557C48.5159 0.587768 48.415 0.895152 48.415 1.27471V39.152C48.415 39.6224 48.5381 39.9293 48.7849 40.0736C49.0321 40.2185 49.3142 40.2907 49.6314 40.2907H62.6732C64.5248 40.2907 66.3146 40.0601 68.0436 39.5996C69.7716 39.1385 71.3806 38.4837 72.871 37.6338C74.3614 36.7843 75.7191 35.7536 76.945 34.5428C78.1705 33.3319 79.2242 31.9804 80.1062 30.4892C80.9877 28.9979 81.667 27.3894 82.1432 25.6629ZM58.651 30.5844V9.73418H62.143C63.5888 9.73418 64.951 9.99172 66.2297 10.5068C67.5083 11.0219 68.6244 11.7452 69.5763 12.6761C70.5287 13.6071 71.2825 14.7094 71.8382 15.9836C72.3934 17.2583 72.6716 18.6545 72.6716 20.1728C72.6716 21.6006 72.4289 22.9205 71.9441 24.1314C71.4588 25.3427 70.7885 26.3952 69.9334 27.2904C69.0778 28.185 68.0772 28.9078 66.9308 29.4592C65.7844 30.0106 64.5503 30.3403 63.2276 30.4488C62.8395 30.4852 62.451 30.5163 62.0634 30.5439C61.6754 30.5709 61.2787 30.5844 60.8729 30.5844H58.651Z" fill="#1F2431"/>
<path fill-rule="evenodd" clip-rule="evenodd" d="M123.093 39.1655C123.198 38.8856 123.251 38.5917 123.251 38.2843V7.72766C123.251 7.40263 123.198 7.11342 123.093 6.86003C122.987 6.60717 122.81 6.3813 122.564 6.18244C122.369 5.98357 122.14 5.85688 121.876 5.80288C121.611 5.74836 121.382 5.72136 121.188 5.72136H117.246C116.893 5.72136 116.62 5.74421 116.426 5.78886C116.232 5.83455 116.069 5.92438 115.937 6.06042C115.805 6.19594 115.681 6.40363 115.567 6.68401C115.452 6.9644 115.306 7.32993 115.13 7.78218L114.363 10.2496C113.887 9.54445 113.331 8.88918 112.696 8.28324C112.061 7.67782 111.351 7.15807 110.566 6.72451C109.782 6.29096 108.917 5.94723 107.974 5.69436C107.031 5.4415 106.012 5.3148 104.919 5.3148C102.52 5.3148 100.272 5.77121 98.1731 6.68401C96.0743 7.59682 94.249 8.85283 92.6973 10.4526C91.1451 12.0523 89.9196 13.9325 89.0199 16.0919C88.1207 18.2524 87.6708 20.589 87.6708 23.101C87.6708 24.7641 87.8735 26.3592 88.2793 27.8862C88.685 29.4143 89.2626 30.8375 90.0123 32.1569C90.7616 33.4763 91.6562 34.6741 92.6973 35.7494C93.7378 36.8253 94.8969 37.7469 96.1761 38.5149C97.4542 39.2833 98.8302 39.8752 100.303 40.2906C101.775 40.7065 103.314 40.9147 104.919 40.9147C105.818 40.9147 106.686 40.8015 107.524 40.5757C108.362 40.3493 109.147 40.0518 109.879 39.681C110.611 39.3103 111.281 38.8903 111.889 38.4198C112.498 37.9505 113.04 37.4712 113.516 36.9831L113.86 38.2028C113.966 38.5107 114.068 38.7952 114.164 39.0569C114.261 39.3191 114.38 39.5409 114.521 39.7215C114.662 39.9022 114.848 40.0424 115.077 40.1416C115.306 40.2413 115.606 40.2906 115.976 40.2906H121.188C121.382 40.2906 121.611 40.2636 121.876 40.2096C122.14 40.1551 122.369 40.0289 122.564 39.8301C122.81 39.667 122.987 39.4458 123.093 39.1655ZM97.194 23.1008C97.194 24.2934 97.3743 25.4098 97.736 26.4493C98.0977 27.4888 98.6134 28.3881 99.2837 29.1472C99.9539 29.9063 100.761 30.5076 101.704 30.95C102.647 31.3934 103.693 31.614 104.839 31.614C106.02 31.614 107.118 31.3934 108.132 30.95C109.147 30.5076 110.028 29.9063 110.778 29.1472C111.527 28.3881 112.114 27.4888 112.537 26.4493C112.96 25.4098 113.172 24.2934 113.172 23.1008C113.172 21.9439 112.96 20.8411 112.537 19.7928C112.114 18.745 111.527 17.8228 110.778 17.0273C110.028 16.2319 109.147 15.6041 108.132 15.1431C107.118 14.682 106.02 14.4514 104.839 14.4514C103.693 14.4514 102.647 14.682 101.704 15.1431C100.761 15.6041 99.9539 16.2319 99.2837 17.0273C98.6134 17.8228 98.0977 18.745 97.736 19.7928C97.3743 20.8411 97.194 21.9439 97.194 23.1008Z" fill="#1F2431"/>
<path fill-rule="evenodd" clip-rule="evenodd" d="M139.732 38.4923V47.1302C139.732 47.6105 139.352 47.9999 138.883 47.9999H130.449C129.98 47.9999 129.6 47.6105 129.6 47.1302V7.72743C129.6 7.36605 129.666 7.06801 129.799 6.8328C129.931 6.59811 130.094 6.38107 130.288 6.1822C130.517 5.98334 130.755 5.85665 131.002 5.80265C131.249 5.74813 131.487 5.72113 131.717 5.72113H135.711C136.046 5.72113 136.324 5.77565 136.544 5.88417C136.765 5.99217 136.945 6.1417 137.087 6.33122C137.228 6.52126 137.346 6.73778 137.444 6.98182C137.54 7.22585 137.633 7.49274 137.722 7.78195L138.318 9.54162C138.539 10.1969 139.382 10.3376 139.793 9.78721C139.971 9.54992 140.149 9.31056 140.327 9.06964C140.83 8.39204 141.425 7.77728 142.113 7.22585C142.801 6.67443 143.621 6.21855 144.573 5.85665C145.525 5.49526 146.69 5.31457 148.065 5.31457C150.481 5.31457 152.707 5.77097 154.744 6.68378C156.781 7.59658 158.536 8.8526 160.009 10.4523C161.481 12.0521 162.632 13.9322 163.461 16.0922C164.29 18.2522 164.704 20.5887 164.704 23.1008C164.704 25.5952 164.29 27.927 163.461 30.0958C162.632 32.2652 161.481 34.1495 160.009 35.7492C158.536 37.349 156.781 38.6096 154.744 39.5318C152.707 40.4534 150.481 40.9145 148.065 40.9145C146.918 40.9145 145.931 40.7743 145.102 40.4939C144.273 40.2141 143.537 39.848 142.893 39.3963C142.249 38.9445 141.681 38.4471 141.187 37.9045C140.667 37.3329 139.732 37.7103 139.732 38.4923ZM138.993 22.6941C139.046 21.5736 139.306 20.5159 139.774 19.5216C140.24 18.5278 140.849 17.6643 141.599 16.9322C142.348 16.2006 143.221 15.6222 144.217 15.1975C145.214 14.7727 146.268 14.5598 147.379 14.5598C148.507 14.5598 149.539 14.7862 150.474 15.238C151.409 15.6897 152.21 16.3045 152.881 17.0812C153.551 17.859 154.072 18.7672 154.442 19.8061C154.812 20.8462 154.997 21.9443 154.997 23.1006C154.997 24.2938 154.812 25.4149 154.442 26.4627C154.072 27.5115 153.551 28.4196 152.881 29.1876C152.21 29.956 151.409 30.5661 150.474 31.0179C149.539 31.4696 148.507 31.6955 147.379 31.6955C146.232 31.6955 145.148 31.4696 144.125 31.0179C143.102 30.5661 142.211 29.956 141.453 29.1876C140.695 28.4196 140.095 27.5115 139.654 26.4627C139.213 25.4149 138.993 24.2938 138.993 23.1006V22.6941Z" fill="#1F2431"/>
<path fill-rule="evenodd" clip-rule="evenodd" d="M180.127 38.4663V47.1406C180.127 47.6152 179.751 47.9999 179.288 47.9999H170.834C170.37 47.9999 169.995 47.6152 169.995 47.1406V7.72743C169.995 7.36605 170.061 7.06801 170.193 6.8328C170.325 6.59811 170.489 6.38107 170.683 6.1822C170.912 5.98334 171.15 5.85665 171.397 5.80265C171.644 5.74813 171.882 5.72113 172.111 5.72113H176.106C176.441 5.72113 176.718 5.77565 176.939 5.88417C177.159 5.99217 177.34 6.1417 177.481 6.33122C177.622 6.52126 177.741 6.73778 177.838 6.98182C177.935 7.22585 178.028 7.49274 178.116 7.78195L178.718 9.55979C178.938 10.2073 179.77 10.3459 180.177 9.80175C180.358 9.55979 180.539 9.31575 180.722 9.06964C181.224 8.39204 181.82 7.77728 182.508 7.22585C183.195 6.67443 184.015 6.21855 184.968 5.85665C185.92 5.49526 187.084 5.31457 188.46 5.31457C190.875 5.31457 193.102 5.77097 195.139 6.68378C197.176 7.59658 198.931 8.8526 200.404 10.4523C201.876 12.0521 203.027 13.9322 203.855 16.0922C204.684 18.2522 205.099 20.5887 205.099 23.1008C205.099 25.5952 204.684 27.927 203.855 30.0958C203.027 32.2652 201.876 34.1495 200.404 35.7492C198.931 37.349 197.176 38.6096 195.139 39.5318C193.102 40.4534 190.875 40.9145 188.46 40.9145C187.313 40.9145 186.325 40.7743 185.497 40.4939C184.668 40.2141 183.932 39.848 183.288 39.3963C182.644 38.9445 182.075 38.4471 181.581 37.9045C181.576 37.8993 181.571 37.8936 181.567 37.8884C181.052 37.322 180.127 37.6922 180.127 38.4663ZM179.386 22.6941C179.438 21.5736 179.699 20.5159 180.166 19.5216C180.633 18.5278 181.242 17.6643 181.991 16.9322C182.741 16.2006 183.614 15.6222 184.61 15.1975C185.607 14.7727 186.66 14.5598 187.771 14.5598C188.9 14.5598 189.931 14.7862 190.867 15.238C191.801 15.6897 192.603 16.3045 193.274 17.0812C193.944 17.859 194.464 18.7672 194.835 19.8061C195.205 20.8462 195.39 21.9443 195.39 23.1006C195.39 24.2938 195.205 25.4149 194.835 26.4627C194.464 27.5115 193.944 28.4196 193.274 29.1876C192.603 29.956 191.801 30.5661 190.867 31.0179C189.931 31.4696 188.9 31.6955 187.771 31.6955C186.625 31.6955 185.54 31.4696 184.517 31.0179C183.495 30.5661 182.604 29.956 181.846 29.1876C181.087 28.4196 180.487 27.5115 180.047 26.4627C179.606 25.4149 179.386 24.2938 179.386 23.1006V22.6941Z" fill="#1F2431"/>
<path d="M216.858 46.882L219.269 40.4592C219.342 40.2639 219.34 40.0469 219.263 39.8532L206.765 8.45957C206.482 7.7368 206.478 7.11736 206.751 6.60228C207.025 6.08721 207.628 5.82967 208.564 5.82967H215.098C215.538 5.82967 215.9 5.96986 216.182 6.24973C216.464 6.53011 216.676 6.87799 216.817 7.29338L223.539 26.8891C223.791 27.6243 224.807 27.6207 225.054 26.8839L231.631 7.29338C231.825 6.71548 232.072 6.32709 232.372 6.12771C232.671 5.92936 233.086 5.82967 233.615 5.82967H240.414C240.907 5.82967 241.295 5.89717 241.578 6.03269C241.86 6.16821 242.058 6.34942 242.173 6.57528C242.288 6.80115 242.327 7.05453 242.292 7.3344C242.256 7.61478 242.186 7.88997 242.08 8.16101C241.41 9.86045 240.678 11.7177 239.885 13.7329C239.091 15.7485 238.266 17.8452 237.412 20.0233C236.556 22.2015 235.687 24.416 234.806 26.6663C233.924 28.9167 233.064 31.126 232.227 33.2953C231.389 35.4642 230.582 37.5478 229.806 39.5448C229.03 41.5418 228.32 43.3767 227.676 45.0491C227.342 45.9163 227.033 46.7231 226.745 47.4791C226.625 47.7943 226.329 47.9999 225.999 47.9999H217.606C217.043 47.9999 216.655 47.421 216.858 46.882Z" fill="#1F2431"/>
</g>
<g id="Vector">
<path fill-rule="evenodd" clip-rule="evenodd" d="M5.70265 17.2802C8.85214 17.2802 11.4053 14.7013 11.4053 11.5201C11.4053 8.33898 8.85214 5.76013 5.70265 5.76013C2.55316 5.76013 0 8.33898 0 11.5201C0 14.7013 2.55316 17.2802 5.70265 17.2802Z" fill="#315EFB"/>
<path fill-rule="evenodd" clip-rule="evenodd" d="M24.7119 36.4799C27.8614 36.4799 30.4146 33.901 30.4146 30.7199C30.4146 27.5387 27.8614 24.9598 24.7119 24.9598C21.5624 24.9598 19.0093 27.5387 19.0093 30.7199C19.0093 33.901 21.5624 36.4799 24.7119 36.4799Z" fill="#315EFB"/>
<path fill-rule="evenodd" clip-rule="evenodd" d="M24.5662 7.68068C21.3359 7.68068 18.7173 10.3257 18.7173 13.5884C18.7173 16.8511 21.3359 19.4961 24.5662 19.4961C27.7964 19.4961 30.415 16.8511 30.415 13.5884C30.415 10.3257 27.7964 7.68068 24.5662 7.68068Z" fill="#315EFB"/>
<path fill-rule="evenodd" clip-rule="evenodd" d="M5.84985 26.585C2.61961 26.585 0.000977234 29.2299 0.000977234 32.4927C0.000977234 35.7554 2.61961 38.4004 5.84985 38.4004C9.0801 38.4004 11.6987 35.7554 11.6987 32.4927C11.6987 29.2299 9.0801 26.585 5.84985 26.585Z" fill="#315EFB"/>
</g>
</g>
</svg>
